HIERARCHY
ROOT reference
{
  OFFSET -65.3212 -1.93545 -120.338
  CHANNELS 6 Xposition Yposition Zposition Zrotation Xrotation Yrotation
  JOINT Hips
  {
    OFFSET 0 78.7191 0
    CHANNELS 3 Zrotation Xrotation Yrotation
    JOINT Chest
    {
      OFFSET 0 8.7983 -4.7612
      CHANNELS 3 Zrotation Xrotation Yrotation
      JOINT Chest2
      {
        OFFSET 0 8.0291 0.4195
        CHANNELS 3 Zrotation Xrotation Yrotation
        JOINT Chest3
        {
          OFFSET 0 9.9351 -2.2114
          CHANNELS 3 Zrotation Xrotation Yrotation
          JOINT Neck
          {
            OFFSET 0 22.3885 -0.4656
            CHANNELS 3 Zrotation Xrotation Yrotation
            JOINT Head
            {
              OFFSET -0.0001 12.643 3.4389
              CHANNELS 3 Zrotation Xrotation Yrotation
              End Site
              {
                OFFSET 0.0001 17.6655 0.5274
              }
            }
          }
          JOINT LeftCollar
          {
            OFFSET 2.2603 21.606 7.4023
            CHANNELS 3 Zrotation Xrotation Yrotation
            JOINT LeftShoulder
            {
              OFFSET 13.5163 -1.1332 -5.0146
              CHANNELS 3 Zrotation Xrotation Yrotation
              JOINT LeftElbow
              {
                OFFSET -0.0995 -28.05 -0.2431
                CHANNELS 3 Zrotation Xrotation Yrotation
                JOINT LeftWrist
                {
                  OFFSET 0.0679 -23.3996 -0.1402
                  CHANNELS 3 Zrotation Xrotation Yrotation
                  JOINT LeftFinger1
                  {
                    OFFSET 0.7932 -9.069 2.5189
                    CHANNELS 3 Zrotation Xrotation Yrotation
                    JOINT LeftFinger11
                    {
                      OFFSET -0.8272 -3.3923 0.5977
                      CHANNELS 3 Zrotation Xrotation Yrotation
                      JOINT LeftFinger12
                      {
                        OFFSET -0.5649 -2.3158 0.4082
                        CHANNELS 3 Zrotation Xrotation Yrotation
                        End Site
                        {
                          OFFSET -0.4919 -1.6479 0.2673
                        }
                      }
                    }
                  }
                  JOINT LeftFinger2
                  {
                    OFFSET 0.9159 -9.2044 0.2193
                    CHANNELS 3 Zrotation Xrotation Yrotation
                    JOINT LeftFinger21
                    {
                      OFFSET 0.0117 -4.1944 -0.0248
                      CHANNELS 3 Zrotation Xrotation Yrotation
                      JOINT LeftFinger22
                      {
                        OFFSET 0.0071 -2.3249 -0.0142
                        CHANNELS 3 Zrotation Xrotation Yrotation
                        End Site
                        {
                          OFFSET -0.1475 -2.0882 0.0028
                        }
                      }
                    }
                  }
                  JOINT LeftFinger3
                  {
                    OFFSET 0.6113 -8.7231 -2.0637
                    CHANNELS 3 Zrotation Xrotation Yrotation
                    JOINT LeftFinger31
                    {
                      OFFSET -0.1927 -3.8059 -0.2383
                      CHANNELS 3 Zrotation Xrotation Yrotation
                      JOINT LeftFinger32
                      {
                        OFFSET -0.1091 -2.1688 -0.1362
                        CHANNELS 3 Zrotation Xrotation Yrotation
                        End Site
                        {
                          OFFSET -0.2358 -1.9176 -0.0906
                        }
                      }
                    }
                  }
                  JOINT LeftFinger4
                  {
                    OFFSET -0.6151 -8.0947 -3.5641
                    CHANNELS 3 Zrotation Xrotation Yrotation
                    JOINT LeftFinger41
                    {
                      OFFSET -0.4882 -2.341 -0.6462
                      CHANNELS 3 Zrotation Xrotation Yrotation
                      JOINT LeftFinger42
                      {
                        OFFSET -0.3575 -1.7167 -0.4742
                        CHANNELS 3 Zrotation Xrotation Yrotation
                        End Site
                        {
                          OFFSET -0.4187 -1.5237 -0.3496
                        }
                      }
                    }
                  }
                  JOINT LeftFinger0
                  {
                    OFFSET -1.42 -1.8761 1.4223
                    CHANNELS 3 Zrotation Xrotation Yrotation
                    JOINT LeftFinger01
                    {
                      OFFSET -1.1471 -3.4929 2.6334
                      CHANNELS 3 Zrotation Xrotation Yrotation
                      JOINT LeftFinger02
                      {
                        OFFSET -0.823 -2.3 1.6571
                        CHANNELS 3 Zrotation Xrotation Yrotation
                        End Site
                        {
                          OFFSET -0.5822 -1.6914 1.1582
                        }
                      }
                    }
                  }
                }
              }
            }
          }
          JOINT RightCollar
          {
            OFFSET -2.2603 21.606 7.4023
            CHANNELS 3 Zrotation Xrotation Yrotation
            JOINT RightShoulder
            {
              OFFSET -13.5187 -1.1334 -5.0155
              CHANNELS 3 Zrotation Xrotation Yrotation
              JOINT RightElbow
              {
                OFFSET 0.0994 -28.0499 -0.2431
                CHANNELS 3 Zrotation Xrotation Yrotation
                JOINT RightWrist
                {
                  OFFSET -0.0679 -23.3996 -0.1402
                  CHANNELS 3 Zrotation Xrotation Yrotation
                  JOINT RightFinger1
                  {
                    OFFSET -0.7932 -9.0691 2.5189
                    CHANNELS 3 Zrotation Xrotation Yrotation
                    JOINT RightFinger11
                    {
                      OFFSET 0.8272 -3.3923 0.5977
                      CHANNELS 3 Zrotation Xrotation Yrotation
                      JOINT RightFinger12
                      {
                        OFFSET 0.565 -2.3158 0.4082
                        CHANNELS 3 Zrotation Xrotation Yrotation
                        End Site
                        {
                          OFFSET 0.4919 -1.6479 0.2673
                        }
                      }
                    }
                  }
                  JOINT RightFinger2
                  {
                    OFFSET -0.916 -9.2044 0.2193
                    CHANNELS 3 Zrotation Xrotation Yrotation
                    JOINT RightFinger21
                    {
                      OFFSET -0.0117 -4.1944 -0.0248
                      CHANNELS 3 Zrotation Xrotation Yrotation
                      JOINT RightFinger22
                      {
                        OFFSET -0.0071 -2.3249 -0.0142
                        CHANNELS 3 Zrotation Xrotation Yrotation
                        End Site
                        {
                          OFFSET 0.1475 -2.0882 0.0028
                        }
                      }
                    }
                  }
                  JOINT RightFinger3
                  {
                    OFFSET -0.6113 -8.7231 -2.0637
                    CHANNELS 3 Zrotation Xrotation Yrotation
                    JOINT RightFinger31
                    {
                      OFFSET 0.1927 -3.8059 -0.2383
                      CHANNELS 3 Zrotation Xrotation Yrotation
                      JOINT RightFinger32
                      {
                        OFFSET 0.1091 -2.1688 -0.1362
                        CHANNELS 3 Zrotation Xrotation Yrotation
                        End Site
                        {
                          OFFSET 0.2358 -1.9176 -0.0906
                        }
                      }
                    }
                  }
                  JOINT RightFinger4
                  {
                    OFFSET 0.6151 -8.0947 -3.564
                    CHANNELS 3 Zrotation Xrotation Yrotation
                    JOINT RightFinger41
                    {
                      OFFSET 0.4882 -2.341 -0.6462
                      CHANNELS 3 Zrotation Xrotation Yrotation
                      JOINT RightFinger42
                      {
                        OFFSET 0.3574 -1.7166 -0.4742
                        CHANNELS 3 Zrotation Xrotation Yrotation
                        End Site
                        {
                          OFFSET 0.4187 -1.5237 -0.3496
                        }
                      }
                    }
                  }
                  JOINT RightFinger0
                  {
                    OFFSET 1.4199 -1.8761 1.4221
                    CHANNELS 3 Zrotation Xrotation Yrotation
                    JOINT RightFinger01
                    {
                      OFFSET 1.1472 -3.4929 2.6336
                      CHANNELS 3 Zrotation Xrotation Yrotation
                      JOINT RightFinger02
                      {
                        OFFSET 0.8229 -2.3 1.6571
                        CHANNELS 3 Zrotation Xrotation Yrotation
                        End Site
                        {
                          OFFSET 0.5822 -1.6914 1.1582
                        }
                      }
                    }
                  }
                }
              }
            }
          }
        }
      }
    }
    JOINT RightHip
    {
      OFFSET -9.412 3.9771 -0.7758
      CHANNELS 3 Zrotation Xrotation Yrotation
      JOINT RightKnee
      {
        OFFSET -0.7531 -40.938 0
        CHANNELS 3 Zrotation Xrotation Yrotation
        JOINT RightAnkle
        {
          OFFSET 0 -40.1986 0
          CHANNELS 3 Zrotation Xrotation Yrotation
          JOINT RightToe
          {
            OFFSET 0 -4.4182 9.239
            CHANNELS 3 Zrotation Xrotation Yrotation
            End Site
            {
              OFFSET 0 0 6.1981
            }
          }
        }
      }
    }
    JOINT LeftHip
    {
      OFFSET 9.4119 3.9773 -0.7758
      CHANNELS 3 Zrotation Xrotation Yrotation
      JOINT LeftKnee
      {
        OFFSET 0.7532 -40.9383 0
        CHANNELS 3 Zrotation Xrotation Yrotation
        JOINT LeftAnkle
        {
          OFFSET 0 -40.1986 0
          CHANNELS 3 Zrotation Xrotation Yrotation
          JOINT LeftToe
          {
            OFFSET 0 -4.4182 9.239
            CHANNELS 3 Zrotation Xrotation Yrotation
            End Site
            {
              OFFSET 0 0 6.1981
            }
          }
        }
      }
    }
  }
}
MOTION
Frames:	4
Frame Time:	0.0333333
20.7939 -62.9401 -48.1746 0 0 -0 13.1856 12.6674 -48.228 0.0821041 -0.607247 1.40601 0.179095 -1.21231 2.81317 0.179099 -1.2123 2.81317 -1.93974 -34.5324 -8.16758 6.02835 -5.57096 -3.8764 0.443171 -0.764293 -19.8137 34.5987 -48.6541 13.0491 -128.439 -84.5638 -93.0455 -3.42909 22.6102 13.4822 -3.0346 13.5332 -2.18198 -35.3167 20.4568 4.66832 -36.3891 20.9688 4.99576 -1.0037 1.77404 1.17349 -42.7842 24.7471 5.54529 -8.91328 5.62874 -0.44233 -6.58201 6.72806 5.06491 -13.8829 9.68229 -0.672539 -15.2684 10.6411 -0.610603 13.8075 -0.976076 8.79335 -17.7367 12.2751 -1.06119 -8.75064 6.03022 -1.00086 -11.5752 -16.7454 -49.4479 -4.53236 0.274144 0.313026 8.53296 10.6972 -3.07914 -13.5562 -1.13497 39.8529 -66.2861 -31.3595 -45.2896 -164.368 -68.4484 170.491 -9.81755 40.5712 -36.5924 11.6477 14.2792 0.992703 44.2763 13.157 -6.11047 45.4054 13.4037 -6.38644 6.63246 3.3024 -1.26753 52.3752 15.6204 -6.40187 15.3503 5.19879 -0.333558 12.9351 7.01933 -5.55436 21.116 8.14441 -0.317215 22.7006 8.73503 -0.46058 -8.95571 3.95867 -6.76167 25.5475 9.6634 0.0105087 15.2476 5.7932 0.529024 9.91522 -19.9007 48.0804 1.41321 -0.442823 -1.52293 -7.1974 14.5369 5.60465 -41.053 -4.64282 -14.7582 167.279 31.1966 -152.122 -2.4916 -9.30105 33.8955 -26.0382 32.4699 -7.81154 46.6376 -24.2171 23.2717 179.837 28.7549 177.202 3.78431 -7.39309 -37.3277 9.36228 53.3795 17.0294 
20.0082 -61.9016 -47.6226 0 0 -0 16.1891 16.1243 -47.7905 0.135513 -1.75153 1.37412 0.313239 -3.4993 2.75434 0.31324 -3.49931 2.75432 -2.28301 -35.6368 -8.95736 5.60598 -5.25009 -4.22187 0.239959 -0.817521 -19.1298 32.8432 -45.7353 12.2191 -134.206 -78.3114 -94.9247 -0.579277 22.892 11.2475 -3.03456 13.5332 -2.18209 -35.3167 20.4567 4.66838 -36.3891 20.9688 4.99584 -1.00371 1.77402 1.17351 -42.7842 24.7472 5.54517 -8.91327 5.62878 -0.442314 -6.58202 6.72805 5.06492 -13.8829 9.68227 -0.67252 -15.2684 10.6411 -0.610605 13.8075 -0.976068 8.79337 -17.7367 12.2751 -1.06117 -8.75063 6.03023 -1.00087 -11.5752 -16.7454 -49.4479 -4.53236 0.274149 0.313037 8.53295 10.6973 -3.07914 -12.381 -1.2589 39.3052 -62.8768 -29.7711 -42.0005 -165.625 -63.1708 166.963 -9.28556 42.3758 -35.715 11.6477 14.2793 0.992748 44.2764 13.157 -6.11044 45.4054 13.4037 -6.38642 6.63244 3.3024 -1.26748 52.3752 15.6204 -6.40188 15.3503 5.19878 -0.333544 12.9351 7.01936 -5.55435 21.116 8.1444 -0.317181 22.7006 8.73509 -0.460733 -8.95572 3.95867 -6.76165 25.5475 9.66342 0.0105353 15.2476 5.79319 0.529037 9.91525 -19.9007 48.0805 1.41321 -0.442828 -1.52291 -7.19743 14.5369 5.60471 -40.475 -7.13182 -19.5948 166.37 33.5191 -152.187 -1.91886 -7.31536 33.3173 -26.0775 32.6603 -7.28301 47.8531 -28.0095 26.6687 179.807 30.6447 177.699 3.80969 -6.18918 -36.6413 9.4199 53.5007 16.3779 
18.9667 -60.7128 -46.8972 0 0 -0 18.4397 18.9411 -47.4205 0.172122 -2.71469 1.35356 0.40917 -5.42454 2.71984 0.409172 -5.42454 2.71983 -2.64053 -36.5264 -9.75772 5.11779 -4.90046 -4.58411 -0.0853924 -0.887039 -18.309 31.4751 -42.6094 11.593 -134.372 -72.2766 -91.8086 1.83752 22.3297 9.55553 -3.03456 13.5333 -2.18209 -35.3168 20.4567 4.66843 -36.3891 20.9688 4.99571 -1.00373 1.77399 1.17352 -42.7842 24.7472 5.54517 -8.91327 5.62876 -0.442293 -6.58205 6.72801 5.06498 -13.8829 9.68227 -0.672526 -15.2684 10.6411 -0.610612 13.8075 -0.9761 8.79338 -17.7367 12.2751 -1.06117 -8.75066 6.03022 -1.00087 -11.5753 -16.7454 -49.448 -4.53239 0.274149 0.313066 8.53295 10.6973 -3.0791 -11.2261 -1.37015 38.8413 -59.2893 -27.6492 -38.4496 -167.119 -58.0407 162.151 -10.6169 43.3587 -33.0591 11.6477 14.2793 0.992835 44.2763 13.157 -6.11045 45.4054 13.4038 -6.38638 6.63246 3.30242 -1.26739 52.3752 15.6204 -6.40184 15.3503 5.1988 -0.333544 12.9351 7.01934 -5.55436 21.116 8.14439 -0.317128 22.7006 8.73511 -0.46073 -8.95568 3.95864 -6.76168 25.5475 9.66341 0.0105568 15.2476 5.79321 0.529034 9.91521 -19.9007 48.0803 1.41317 -0.442814 -1.52289 -7.19737 14.537 5.60457 -39.771 -8.84935 -23.6182 165.25 36.2514 -152.07 -1.40287 -5.00953 32.8662 -26.1117 32.7886 -6.90103 48.6995 -30.7418 29.3426 179.778 32.9564 178.151 3.81678 -4.94877 -35.6992 9.80863 53.6381 15.7846 
17.7505 -59.4926 -46.0663 0 0 -0 19.9422 21.0722 -47.0415 0.193502 -3.48321 1.33894 0.46997 -6.96086 2.6972 0.469969 -6.96089 2.69722 -2.97491 -37.0996 -10.5236 4.58463 -4.57206 -4.92253 -0.402857 -0.972322 -17.3963 30.5342 -39.4306 11.1944 -133.299 -66.7734 -88.082 3.64262 21.039 8.42485 -3.03454 13.5333 -2.1821 -35.3167 20.4568 4.66826 -36.389 20.9688 4.99571 -1.0037 1.77405 1.17353 -42.7841 24.7471 5.54511 -8.91325 5.62878 -0.442261 -6.58204 6.72804 5.065 -13.8828 9.68224 -0.672506 -15.2684 10.6411 -0.610599 13.8075 -0.97609 8.79339 -17.7367 12.2751 -1.06117 -8.75062 6.03023 -1.00085 -11.5752 -16.7453 -49.4481 -4.53242 0.274165 0.313164 8.53294 10.6972 -3.07909 -10.0903 -1.46118 38.4609 -55.8355 -24.9583 -34.8878 -168.833 -53.346 156.272 -13.6073 43.1967 -28.8273 11.6477 14.2792 0.992668 44.2763 13.157 -6.11041 45.4053 13.4038 -6.38632 6.63244 3.30239 -1.26757 52.3752 15.6204 -6.40179 15.3503 5.19878 -0.333547 12.9351 7.01935 -5.55436 21.1159 8.14439 -0.317011 22.7005 8.7351 -0.460693 -8.95572 3.95867 -6.76167 25.5474 9.66341 0.0107092 15.2476 5.79321 0.529054 9.91518 -19.9007 48.0803 1.41316 -0.442848 -1.5228 -7.19736 14.537 5.60454 -38.884 -9.73494 -26.6886 163.967 39.2199 -151.69 -1.02793 -2.60047 32.5725 -26.1093 32.8285 -6.69283 49.0984 -32.4367 31.1307 179.758 35.4993 178.496 3.85247 -3.7737 -34.5672 10.5169 53.7468 15.3299 
